<svg xmlns="http://www.w3.org/2000/svg" xmlns:xlink="http://www.w3.org/1999/xlink" width="876pt" height="260pt" viewBox="0.00 0.00 876.18 260.00">
<g id="graph0" class="graph" transform="scale(1 1) rotate(0) translate(4 256)">
<title>G</title>
<polygon fill="white" stroke="none" points="-4,4 -4,-256 872.18,-256 872.18,4 -4,4"/>
<!-- webapp -->
<g id="node1" class="node">
<title>webapp</title>
<polygon fill="none" stroke="black" points="316.08,-252 256.55,-252 256.55,-216 316.08,-216 316.08,-252"/>
<text text-anchor="middle" x="286.31" y="-229.8" font-family="Times,serif" font-size="14.00">webapp</text>
</g>
<!-- axios@1.2.0 -->
<g id="node2" class="node">
<title>axios@1.2.0</title>
<ellipse fill="none" stroke="black" cx="77.31" cy="-162" rx="59.63" ry="18"/>
<text text-anchor="middle" x="77.31" y="-157.8" font-family="Times,serif" font-size="14.00">axios@1.2.0</text>
</g>
<!-- webapp&#45;&gt;axios@1.2.0 -->
<g id="edge1" class="edge">
<title>webapp-&gt;axios@1.2.0</title>
<path fill="none" stroke="black" d="M256.37,-222.97C222.56,-211.65 167.03,-193.05 126.76,-179.56"/>
<polygon fill="black" stroke="black" points="128.13,-176.33 117.53,-176.47 125.9,-182.96 128.13,-176.33"/>
</g>
<!-- btoa@2.1.0 -->
<g id="node3" class="node">
<title>btoa@2.1.0</title>
<ellipse fill="lightgreen" stroke="lightgreen" cx="210.31" cy="-162" rx="55.87" ry="18"/>
<text text-anchor="middle" x="210.31" y="-157.8" font-family="Times,serif" font-size="14.00">btoa@2.1.0</text>
</g>
<!-- webapp&#45;&gt;btoa@2.1.0 -->
<g id="edge2" class="edge">
<title>webapp-&gt;btoa@2.1.0</title>
<path fill="none" stroke="black" d="M267.53,-215.7C258.12,-207.03 246.58,-196.4 236.33,-186.96"/>
<polygon fill="black" stroke="black" points="238.94,-184.61 229.22,-180.41 234.2,-189.76 238.94,-184.61"/>
</g>
<!-- m&#45;qr&#45;code@3.1.2 -->
<g id="node4" class="node">
<title>m-qr-code@3.1.2</title>
<ellipse fill="none" stroke="black" cx="363.31" cy="-162" rx="79.46" ry="18"/>
<text text-anchor="middle" x="363.31" y="-157.8" font-family="Times,serif" font-size="14.00">m-qr-code@3.1.2</text>
</g>
<!-- webapp&#45;&gt;m&#45;qr&#45;code@3.1.2 -->
<g id="edge3" class="edge">
<title>webapp-&gt;m-qr-code@3.1.2</title>
<path fill="none" stroke="black" d="M305.35,-215.7C314.74,-207.16 326.24,-196.71 336.5,-187.37"/>
<polygon fill="black" stroke="black" points="338.6,-190.2 343.65,-180.88 333.89,-185.02 338.6,-190.2"/>
</g>
<!-- paper&#45;paypal&#45;component@4.0.0 -->
<g id="node5" class="node">
<title>paper-paypal-component@4.0.0</title>
<ellipse fill="none" stroke="black" cx="645.31" cy="-162" rx="135.77" ry="18"/>
<text text-anchor="middle" x="645.31" y="-157.8" font-family="Times,serif" font-size="14.00">paper-paypal-component@4.0.0</text>
</g>
<!-- webapp&#45;&gt;paper&#45;paypal&#45;component@4.0.0 -->
<g id="edge4" class="edge">
<title>webapp-&gt;paper-paypal-component@4.0.0</title>
<path fill="none" stroke="black" d="M316.31,-227.15C369.42,-216.8 481.81,-194.88 560.38,-179.56"/>
<polygon fill="black" stroke="black" points="560.6,-183.08 569.75,-177.73 559.26,-176.21 560.6,-183.08"/>
</g>
<!-- form&#45;data@2.1.1 -->
<g id="node6" class="node">
<title>form-data@2.1.1</title>
<ellipse fill="orange" stroke="orange" cx="77.31" cy="-90" rx="77.31" ry="18"/>
<text text-anchor="middle" x="77.31" y="-85.8" font-family="Times,serif" font-size="14.00">form-data@2.1.1</text>
</g>
<!-- axios@1.2.0&#45;&gt;form&#45;data@2.1.1 -->
<g id="edge5" class="edge">
<title>axios@1.2.0-&gt;form-data@2.1.1</title>
<path fill="none" stroke="black" d="M77.31,-143.7C77.31,-136.41 77.31,-127.73 77.31,-119.54"/>
<polygon fill="black" stroke="black" points="80.81,-119.62 77.31,-109.62 73.81,-119.62 80.81,-119.62"/>
</g>
<!-- svg2img@8.1.0 -->
<g id="node10" class="node">
<title>svg2img@8.1.0</title>
<ellipse fill="none" stroke="black" cx="338.31" cy="-90" rx="72.51" ry="18"/>
<text text-anchor="middle" x="338.31" y="-85.8" font-family="Times,serif" font-size="14.00">svg2img@8.1.0</text>
</g>
<!-- m&#45;qr&#45;code@3.1.2&#45;&gt;svg2img@8.1.0 -->
<g id="edge10" class="edge">
<title>m-qr-code@3.1.2-&gt;svg2img@8.1.0</title>
<path fill="none" stroke="black" d="M357.14,-143.7C354.44,-136.15 351.21,-127.12 348.2,-118.68"/>
<polygon fill="black" stroke="black" points="351.59,-117.77 344.93,-109.53 345,-120.12 351.59,-117.77"/>
</g>
<!-- form&#45;data@2.3.0 -->
<g id="node7" class="node">
<title>form-data@2.3.0</title>
<ellipse fill="orange" stroke="orange" cx="506.31" cy="-90" rx="77.31" ry="18"/>
<text text-anchor="middle" x="506.31" y="-85.8" font-family="Times,serif" font-size="14.00">form-data@2.3.0</text>
</g>
<!-- paper&#45;paypal&#45;component@4.0.0&#45;&gt;form&#45;data@2.3.0 -->
<g id="edge6" class="edge">
<title>paper-paypal-component@4.0.0-&gt;form-data@2.3.0</title>
<path fill="none" stroke="black" d="M612.02,-144.23C592.65,-134.48 568.06,-122.1 547.48,-111.73"/>
<polygon fill="black" stroke="black" points="549.29,-108.72 538.78,-107.35 546.14,-114.98 549.29,-108.72"/>
</g>
<!-- express@9.1.0 -->
<g id="node8" class="node">
<title>express@9.1.0</title>
<ellipse fill="none" stroke="black" cx="670.31" cy="-90" rx="68.2" ry="18"/>
<text text-anchor="middle" x="670.31" y="-85.8" font-family="Times,serif" font-size="14.00">express@9.1.0</text>
</g>
<!-- paper&#45;paypal&#45;component@4.0.0&#45;&gt;express@9.1.0 -->
<g id="edge7" class="edge">
<title>paper-paypal-component@4.0.0-&gt;express@9.1.0</title>
<path fill="none" stroke="black" d="M651.49,-143.7C654.19,-136.15 657.42,-127.12 660.43,-118.68"/>
<polygon fill="black" stroke="black" points="663.63,-120.12 663.7,-109.53 657.04,-117.77 663.63,-120.12"/>
</g>
<!-- btoa@2.5.0 -->
<g id="node9" class="node">
<title>btoa@2.5.0</title>
<ellipse fill="lightgreen" stroke="lightgreen" cx="812.31" cy="-90" rx="55.87" ry="18"/>
<text text-anchor="middle" x="812.31" y="-85.8" font-family="Times,serif" font-size="14.00">btoa@2.5.0</text>
</g>
<!-- paper&#45;paypal&#45;component@4.0.0&#45;&gt;btoa@2.5.0 -->
<g id="edge8" class="edge">
<title>paper-paypal-component@4.0.0-&gt;btoa@2.5.0</title>
<path fill="none" stroke="black" d="M684.89,-144.41C710.15,-133.82 742.92,-120.09 768.89,-109.2"/>
<polygon fill="black" stroke="black" points="769.94,-112.56 777.81,-105.46 767.23,-106.1 769.94,-112.56"/>
</g>
<!-- btoa@2.3.4 -->
<g id="node11" class="node">
<title>btoa@2.3.4</title>
<ellipse fill="lightgreen" stroke="lightgreen" cx="338.31" cy="-18" rx="55.87" ry="18"/>
<text text-anchor="middle" x="338.31" y="-13.8" font-family="Times,serif" font-size="14.00">btoa@2.3.4</text>
</g>
<!-- svg2img@8.1.0&#45;&gt;btoa@2.3.4 -->
<g id="edge9" class="edge">
<title>svg2img@8.1.0-&gt;btoa@2.3.4</title>
<path fill="none" stroke="black" d="M338.31,-71.7C338.31,-64.41 338.31,-55.73 338.31,-47.54"/>
<polygon fill="black" stroke="black" points="341.81,-47.62 338.31,-37.62 334.81,-47.62 341.81,-47.62"/>
</g>
</g>
</svg>